<svg width="100" height="25" xmlns="http://www.w3.org/2000/svg" fill="#000000">
 <defs>
  <linearGradient y2="-2.60383" x2="0.49998" y1="1.00266" x1="0.49998" id="a">
   <stop stop-opacity="0.1" stop-color="#1a1a1a" offset="0"/>
   <stop stop-opacity="0.151" stop-color="#212121" offset="0.123"/>
   <stop stop-opacity="0.227" stop-color="#353535" offset="0.308"/>
   <stop stop-opacity="0.318" stop-color="#575757" offset="0.532"/>
   <stop stop-opacity="0.421" stop-color="#858585" offset="0.783"/>
   <stop stop-opacity="0.51" stop-color="#b3b3b3" offset="1"/>
  </linearGradient>
 </defs>
 <g>
  <title>Layer 1</title>
  <g stroke-width="0" id="SVGRepo_bgCarrier"/>
  <g stroke-linejoin="round" stroke-linecap="round" id="SVGRepo_tracerCarrier"/>
  <g stroke="null" transform="translate(0 0) scale(4.00216 4.0011)" id="svg_1">
   <path stroke="null" id="svg_2" d="m24.82343,5.53477a0.70934,0.60106 0 0 1 -0.71008,0.60106l-23.23752,0a0.71026,0.60184 0 0 1 -0.711,-0.60106l0,-4.79325a0.71119,0.60263 0 0 1 0.711,-0.60184l23.23733,0a0.71008,0.60169 0 0 1 0.71008,0.60184l0.00019,4.79325z" fill="#FFF"/>
   <path stroke="null" id="svg_3" d="m24.11335,6.27566l-23.23752,0a0.87602,0.7423 0 0 1 -0.87584,-0.74089l0,-4.7931a0.87658,0.74277 0 0 1 0.87584,-0.74167l23.23733,0a0.87695,0.74309 0 0 1 0.87584,0.74167l0,4.7931c0.00037,0.40866 -0.39319,0.74089 -0.87565,0.74089z" fill="#A6A6A6"/>
   <path stroke="null" id="svg_4" d="m24.82343,5.53477a0.70934,0.60106 0 0 1 -0.71008,0.60106l-23.23752,0a0.71026,0.60184 0 0 1 -0.711,-0.60106l0,-4.79325a0.71119,0.60263 0 0 1 0.711,-0.60184l23.23733,0a0.71008,0.60169 0 0 1 0.71008,0.60184l0.00019,4.79325z"/>
   <path stroke="null" id="svg_5" d="m5.57986,3.10479c-0.00537,-0.5058 0.48876,-0.75187 0.51135,-0.76333c-0.27985,-0.34573 -0.7136,-0.39296 -0.86602,-0.39673c-0.3643,-0.03249 -0.71767,0.18471 -0.90325,0.18471c-0.18928,0 -0.47505,-0.18157 -0.78305,-0.17624c-0.39634,0.00518 -0.76712,0.19962 -0.97048,0.50156c-0.41968,0.61565 -0.10668,1.52038 0.2954,2.01802c0.20113,0.24388 0.43616,0.51584 0.74378,0.50627c0.30096,-0.01036 0.41338,-0.16243 0.77657,-0.16243c0.35985,0 0.46542,0.16243 0.77916,0.15631c0.323,-0.00424 0.52635,-0.24482 0.72045,-0.49073c0.23243,-0.27919 0.32578,-0.55445 0.32948,-0.56857c-0.00741,-0.0022 -0.6271,-0.20276 -0.6334,-0.80884zm-0.59266,-1.48743c0.16187,-0.17153 0.27262,-0.40489 0.24188,-0.64171c-0.23428,0.00879 -0.52728,0.13732 -0.696,0.30508c-0.14928,0.14783 -0.28262,0.39014 -0.24818,0.61801c0.26318,0.01664 0.53339,-0.11252 0.7023,-0.28138z" fill="#FFF"/>
   <path stroke="null" id="svg_6" d="m24.11335,0l-12.44672,0l4.87516,6.27566l7.57156,0a0.87658,0.74277 0 0 0 0.87584,-0.74136l0,-4.79262a0.87676,0.74293 0 0 0 -0.87584,-0.74167z" fill="url(#a)"/>
   <g stroke="null" id="svg_7" fill="#FFF">
    <path stroke="null" id="svg_8" d="m9.93904,4.94407l-0.4206,0l-0.2304,-0.61346l-0.80083,0l-0.21947,0.61346l-0.40949,0l0.7936,-2.08849l0.49005,0l0.79712,2.08849zm-0.72045,-0.87083l-0.20836,-0.54535c-0.02204,-0.05571 -0.06353,-0.18691 -0.12427,-0.39343l-0.00741,0c-0.02445,0.08882 -0.06353,0.22002 -0.11705,0.39343l-0.20484,0.54535l0.66192,0zm2.75734,0.09934c0,0.25612 -0.08205,0.45856 -0.24632,0.60718c-0.14705,0.1323 -0.32985,0.19837 -0.54784,0.19837c-0.2354,0 -0.40467,-0.07109 -0.50746,-0.21359l0,0.79017l-0.39486,0l0,-1.6216c0,-0.16086 -0.005,-0.3258 -0.01463,-0.49497l0.34726,0l0.02204,0.2387l0.00741,0c0.13168,-0.17985 0.33152,-0.26977 0.59969,-0.26977c0.20965,0 0.38467,0.07015 0.52469,0.21061c0.13983,0.14077 0.21002,0.32564 0.21002,0.55492zm-0.40227,0.01224c0,-0.14658 -0.03889,-0.26742 -0.11705,-0.36268c-0.08538,-0.09903 -0.20002,-0.14862 -0.34374,-0.14862c-0.09742,0 -0.18595,0.02762 -0.26503,0.08208c-0.07927,0.05493 -0.13113,0.12665 -0.15539,0.21547a0.51561,0.43691 0 0 0 -0.01834,0.10185l0,0.25125c0,0.10938 0.03963,0.20182 0.1189,0.27746c0.07927,0.07533 0.18224,0.11315 0.30892,0.11315c0.14872,0 0.26447,-0.04881 0.34726,-0.14564c0.08297,-0.09714 0.12446,-0.2252 0.12446,-0.38433zm2.44638,-0.01224c0,0.25612 -0.08205,0.45856 -0.24632,0.60718c-0.14724,0.1323 -0.32985,0.19837 -0.54802,0.19837c-0.2354,0 -0.40467,-0.07109 -0.50746,-0.21359l0,0.79017l-0.39486,0l0,-1.6216c0,-0.16086 -0.005,-0.3258 -0.01463,-0.49497l0.34726,0l0.02204,0.2387l0.00741,0c0.1315,-0.17985 0.33133,-0.26977 0.59969,-0.26977c0.20947,0 0.38449,0.07015 0.52487,0.21061c0.13964,0.14077 0.21002,0.32564 0.21002,0.55492zm-0.40245,0.01224c0,-0.14658 -0.03908,-0.26742 -0.11723,-0.36268c-0.08538,-0.09903 -0.19965,-0.14862 -0.34337,-0.14862c-0.09742,0 -0.18595,0.02762 -0.2654,0.08208c-0.07927,0.05493 -0.13094,0.12665 -0.1552,0.21547c-0.01204,0.04143 -0.01852,0.07517 -0.01852,0.10185l0,0.25125c0,0.10938 0.03982,0.20182 0.11872,0.27746c0.07927,0.07517 0.18224,0.11315 0.30929,0.11315c0.14891,0 0.26466,-0.04881 0.34726,-0.14564c0.08297,-0.09714 0.12446,-0.2252 0.12446,-0.38433zm2.68788,0.17341c0,0.17781 -0.07334,0.32234 -0.2191,0.43392c-0.16039,0.12178 -0.3843,0.18283 -0.67137,0.18283c-0.26521,0 -0.47783,-0.04331 -0.63822,-0.1301l0.09131,-0.27887c0.17317,0.08694 0.36337,0.13026 0.57043,0.13026c0.14891,0 0.26466,-0.02856 0.34726,-0.08522c0.08279,-0.05681 0.12464,-0.13277 0.12464,-0.22756c0,-0.0849 -0.03463,-0.15599 -0.1026,-0.2139c-0.06834,-0.05775 -0.18132,-0.11158 -0.34004,-0.16101c-0.43153,-0.13638 -0.64748,-0.33584 -0.64748,-0.59823c0,-0.17137 0.0763,-0.31167 0.22854,-0.42137c0.15224,-0.10954 0.35411,-0.16431 0.60525,-0.16431c0.22428,0 0.41116,0.03311 0.55951,0.09918l-0.09908,0.27275c-0.13964,-0.06403 -0.29725,-0.09604 -0.47357,-0.09604c-0.13927,0 -0.24855,0.02903 -0.3267,0.08678c-0.06575,0.05163 -0.09908,0.11456 -0.09908,0.18926c0,0.08239 0.03797,0.15081 0.11353,0.20449c0.06556,0.04943 0.18521,0.10326 0.35819,0.16101c0.21225,0.0725 0.36819,0.15693 0.46801,0.25392c0.10057,0.09699 0.15057,0.21798 0.15057,0.3622zm1.30885,-0.66901l-0.43523,0l0,0.73116c0,0.18597 0.07667,0.27872 0.2304,0.27872c0.07056,0 0.12909,-0.00502 0.17539,-0.01554l0.01093,0.25408c-0.07779,0.02464 -0.1802,0.03704 -0.30707,0.03704c-0.15594,0 -0.27781,-0.04033 -0.36578,-0.121c-0.0876,-0.08066 -0.13168,-0.21579 -0.13168,-0.40599l0,-0.75909l-0.25929,0l0,-0.2511l0.25929,0l0,-0.27573l0.38782,-0.09918l0,0.37492l0.43523,0l0,0.25172zm1.95984,0.48948c0,0.23148 -0.07816,0.42153 -0.2341,0.57014c-0.16317,0.15301 -0.38023,0.22928 -0.65081,0.22928c-0.26114,0 -0.46875,-0.07329 -0.62359,-0.21971c-0.15483,-0.14673 -0.23225,-0.3316 -0.23225,-0.55461c0,-0.23336 0.08001,-0.42451 0.23947,-0.57313c0.15983,-0.14877 0.37504,-0.22316 0.64563,-0.22316c0.26077,0 0.47024,0.07345 0.62877,0.22002c0.1515,0.14218 0.22688,0.3258 0.22688,0.55115zm-0.4093,0.00769c0,-0.13795 -0.03519,-0.25627 -0.10575,-0.3553c-0.08279,-0.11958 -0.20132,-0.17938 -0.35485,-0.17938c-0.15817,0 -0.27947,0.05979 -0.36208,0.17938c-0.07075,0.09903 -0.10594,0.21939 -0.10594,0.36158c0,0.1381 0.03519,0.25674 0.10594,0.35546c0.08538,0.11958 0.20447,0.17938 0.35874,0.17938c0.15094,0 0.26929,-0.06105 0.35485,-0.18236c0.0726,-0.10138 0.10909,-0.22049 0.10909,-0.35875zm1.69333,-0.45401a0.68711,0.58223 0 0 0 -0.12446,-0.00926c-0.1389,0 -0.24632,0.04426 -0.32189,0.13339c-0.06556,0.07847 -0.09853,0.17765 -0.09853,0.29739l0,0.79017l-0.39486,0l0,-1.03169a12.48839,10.5821 0 0 0 -0.01148,-0.4741l0.34393,0l0.01445,0.28813l0.01093,0c0.04186,-0.09903 0.10742,-0.17891 0.19743,-0.2387a0.47746,0.40458 0 0 1 0.2854,-0.08066c0.03649,0 0.06945,0.0022 0.09871,0.00612l0.00037,0.3192zm1.76593,0.38747a0.92603,0.78467 0 0 1 -0.01445,0.15176l-1.18457,0c0.00444,0.14877 0.06186,0.26271 0.17187,0.34118c0.09983,0.06999 0.22891,0.10515 0.38745,0.10515c0.17539,0 0.33541,-0.02354 0.47931,-0.07109l0.06186,0.23211c-0.16817,0.06215 -0.36671,0.09306 -0.59581,0.09306c-0.27559,0 -0.49191,-0.06874 -0.64933,-0.2059c-0.15705,-0.13732 -0.23577,-0.32187 -0.23577,-0.55304c0,-0.22693 0.07316,-0.41603 0.21965,-0.56685c0.15335,-0.16101 0.36059,-0.24152 0.62136,-0.24152c0.25614,0 0.45005,0.08051 0.58173,0.24152c0.10427,0.12759 0.15668,0.28578 0.15668,0.47363zm-0.37652,-0.08678c0.00278,-0.09934 -0.02315,-0.18487 -0.07667,-0.25722c-0.06834,-0.09322 -0.17354,-0.13967 -0.31448,-0.13967c-0.12909,0 -0.23428,0.04535 -0.31429,0.13638c-0.06575,0.07235 -0.10483,0.15929 -0.11686,0.2602l0.82231,0.00031z"/>
   </g>
   <g stroke="null" id="svg_9" fill="#FFF">
    <path stroke="null" id="svg_10" d="m8.37331,2.1172c-0.10983,0 -0.20484,-0.00455 -0.28392,-0.01224l0,-1.00972a2.14949,1.82138 0 0 1 0.3343,-0.02134c0.45283,0 0.66137,0.18879 0.66137,0.49654c0,0.35499 -0.24632,0.54676 -0.71174,0.54676zm0.0663,-0.91383c-0.06112,0 -0.11316,0.00314 -0.15631,0.01067l0,0.76757c0.02334,0.00314 0.06816,0.00455 0.13113,0.00455c0.2967,0 0.46561,-0.14312 0.46561,-0.41117c0,-0.23901 -0.15279,-0.37162 -0.44042,-0.37162zm1.29533,0.92152c-0.25521,0 -0.4206,-0.16149 -0.4206,-0.38072c0,-0.2285 0.16891,-0.39139 0.43505,-0.39139c0.25151,0 0.4206,0.1538 0.4206,0.37931c0,0.23132 -0.17428,0.39281 -0.43505,0.39281zm0.00741,-0.65191c-0.1402,0 -0.23002,0.11111 -0.23002,0.26647c0,0.15238 0.09168,0.26349 0.22817,0.26349s0.22817,-0.1188 0.22817,-0.26663c0,-0.15066 -0.08982,-0.26334 -0.22632,-0.26334zm1.88298,-0.10499l-0.27318,0.7401l-0.17798,0l-0.11316,-0.3214a2.87624,2.43719 0 0 1 -0.07019,-0.23901l-0.0037,0c-0.01426,0.08066 -0.0413,0.16149 -0.07001,0.23901l-0.12038,0.3214l-0.17983,0l-0.25706,-0.7401l0.19947,0l0.0989,0.35185c0.02334,0.0838 0.04297,0.1629 0.05927,0.2376l0.0037,0c0.01426,-0.0623 0.0376,-0.14014 0.07186,-0.23603l0.12409,-0.35326l0.15817,0l0.11872,0.34573c0.02871,0.0838 0.05204,0.16604 0.07019,0.24372l0.00519,0c0.01259,-0.07611 0.03241,-0.15693 0.05927,-0.24372l0.10612,-0.34573l0.19058,-0.00016zm1.00566,0.7401l-0.1941,0l0,-0.42498c0,-0.13088 -0.05927,-0.19648 -0.17613,-0.19648c-0.11501,0 -0.1941,0.0838 -0.1941,0.18126l0,0.4402l-0.1941,0l0,-0.52856c0,-0.06544 -0.00185,-0.13559 -0.00722,-0.2117l0.17076,0l0.00908,0.11425l0.00537,0c0.05223,-0.0791 0.15817,-0.12931 0.27688,-0.12931c0.18335,0 0.30374,0.1188 0.30374,0.31214l-0.00019,0.44318zm0.53524,0l-0.19428,0l0,-1.07971l0.19428,0l0,1.07971zm0.70767,0.01679c-0.25503,0 -0.4206,-0.16149 -0.4206,-0.38072c0,-0.2285 0.16891,-0.39139 0.43486,-0.39139c0.25169,0 0.4206,0.1538 0.4206,0.37931c0.00019,0.23132 -0.17428,0.39281 -0.43486,0.39281zm0.00722,-0.65191c-0.1402,0 -0.23002,0.11111 -0.23002,0.26647c0,0.15238 0.09186,0.26349 0.22799,0.26349c0.13668,0 0.22817,-0.1188 0.22817,-0.26663c0.00019,-0.15066 -0.08945,-0.26334 -0.22614,-0.26334zm1.19291,0.63511l-0.01408,-0.08522l-0.00519,0c-0.05927,0.06858 -0.14576,0.10201 -0.2554,0.10201c-0.1565,0 -0.26762,-0.09291 -0.26762,-0.21783c0,-0.18267 0.18687,-0.27715 0.51043,-0.27715l0,-0.01365c0,-0.09746 -0.06093,-0.14626 -0.18132,-0.14626c-0.08612,0 -0.16168,0.01836 -0.22817,0.05493l-0.03945,-0.10813c0.08075,-0.04269 0.1815,-0.06403 0.29985,-0.06403c0.22817,0 0.34337,0.10201 0.34337,0.30618l0,0.2726c0,0.0747 0.00389,0.13261 0.01259,0.17671l-0.17502,-0.00016zm-0.02667,-0.36864c-0.21558,0 -0.32374,0.04426 -0.32374,0.14924c0,0.07768 0.05575,0.11566 0.13316,0.11566c0.09871,0 0.19058,-0.06387 0.19058,-0.15066l0,-0.11425zm1.1316,0.36864l-0.00908,-0.1188l-0.00537,0c-0.05575,0.08977 -0.14946,0.13559 -0.2804,0.13559c-0.21058,0 -0.36652,-0.15693 -0.36652,-0.37774c0,-0.23148 0.16168,-0.39453 0.38245,-0.39453c0.11686,0 0.19965,0.03343 0.24632,0.1006l0.00389,0l0,-0.42482l0.19428,0l0,0.88025c0,0.07156 0.00204,0.13857 0.00722,0.19946l-0.1728,0zm-0.02871,-0.43549c0,-0.10358 -0.08093,-0.19193 -0.20447,-0.19193c-0.1439,0 -0.23188,0.10813 -0.23188,0.26035c0,0.14924 0.09131,0.25141 0.22799,0.25141c0.12205,0 0.20836,-0.08992 0.20836,-0.19648l0,-0.12335zm1.42608,0.45229c-0.25503,0 -0.42042,-0.16149 -0.42042,-0.38072c0,-0.2285 0.16891,-0.39139 0.43486,-0.39139c0.25169,0 0.4206,0.1538 0.4206,0.37931c0.00019,0.23132 -0.17409,0.39281 -0.43505,0.39281zm0.00722,-0.65191c-0.14002,0 -0.22984,0.11111 -0.22984,0.26647c0,0.15238 0.09168,0.26349 0.22799,0.26349c0.13668,0 0.22817,-0.1188 0.22817,-0.26663c0.00037,-0.15066 -0.08945,-0.26334 -0.22632,-0.26334zm1.47164,0.63511l-0.19428,0l0,-0.42498c0,-0.13088 -0.05927,-0.19648 -0.17613,-0.19648c-0.11501,0 -0.19391,0.0838 -0.19391,0.18126l0,0.4402l-0.19428,0l0,-0.52856c0,-0.06544 -0.00185,-0.13559 -0.00722,-0.2117l0.17076,0l0.00908,0.11425l0.00537,0c0.05204,-0.0791 0.15817,-0.12947 0.2767,-0.12947c0.18335,0 0.30392,0.1188 0.30392,0.31214l0,0.44334zm1.30588,-0.61675l-0.21354,0l0,0.35938c0,0.09149 0.03741,0.13716 0.11298,0.13716c0.03426,0 0.06297,-0.00314 0.08612,-0.00769l0.00537,0.12492c-0.0376,0.01224 -0.08797,0.01836 -0.15057,0.01836c-0.15298,0 -0.24447,-0.07156 -0.24447,-0.25894l0,-0.37319l-0.12742,0l0,-0.12335l0.12742,0l0,-0.13559l0.19058,-0.04881l0,0.18424l0.21354,0l0,0.12351zm1.02752,0.61675l-0.19391,0l0,-0.42184c0,-0.13245 -0.05908,-0.19946 -0.17613,-0.19946c-0.10057,0 -0.19428,0.05791 -0.19428,0.17514l0,0.44616l-0.19391,0l0,-1.07971l0.19391,0l0,0.4446l0.00389,0c0.06112,-0.08066 0.14965,-0.12037 0.26262,-0.12037c0.18483,0 0.29781,0.12178 0.29781,0.31528l0,0.4402zm1.05271,-0.3305l-0.58247,0c0.0037,0.14014 0.11316,0.21924 0.27522,0.21924c0.08612,0 0.16539,-0.01224 0.2354,-0.035l0.03019,0.11425c-0.0826,0.03045 -0.17983,0.04567 -0.29299,0.04567c-0.27318,0 -0.43486,-0.14626 -0.43486,-0.37303c0,-0.22693 0.16557,-0.39752 0.41301,-0.39752c0.22317,0 0.36319,0.14014 0.36319,0.35185a0.37411,0.31701 0 0 1 -0.00667,0.07454zm-0.17798,-0.11723c0,-0.11425 -0.06797,-0.19491 -0.19206,-0.19491c-0.11149,0 -0.19965,0.08223 -0.21225,0.19491l0.4043,0z"/>
   </g>
  </g>
 </g>
</svg>