<svg width="100" height="25" xmlns="http://www.w3.org/2000/svg" fill="#000000">
 <defs>
  <linearGradient y2="0.71968" x2="-0.38331" y1="0.0484" x1="0.90769" id="SVGID_1_">
   <stop stop-color="#00a0ff" offset="0"/>
   <stop stop-color="#00a1ff" offset="0.007"/>
   <stop stop-color="#00beff" offset="0.26"/>
   <stop stop-color="#00d2ff" offset="0.512"/>
   <stop stop-color="#00dfff" offset="0.76"/>
   <stop stop-color="#00e3ff" offset="1"/>
  </linearGradient>
  <linearGradient y2="0.49424" x2="-1.3067" y1="0.49424" x1="1.07724" id="SVGID_2_">
   <stop stop-color="#ffe000" offset="0"/>
   <stop stop-color="#ffbd00" offset="0.409"/>
   <stop stop-color="orange" offset="0.775"/>
   <stop stop-color="#ff9c00" offset="1"/>
  </linearGradient>
  <linearGradient y2="1.9439" x2="-0.49886" y1="0.17814" x1="0.86389" id="SVGID_3_">
   <stop stop-color="#ff3a44" offset="0"/>
   <stop stop-color="#c31162" offset="1"/>
  </linearGradient>
  <linearGradient y2="0.24692" x2="0.42275" y1="-0.54528" x1="-0.18581" id="SVGID_4_">
   <stop stop-color="#32a071" offset="0"/>
   <stop stop-color="#2da771" offset="0.069"/>
   <stop stop-color="#15cf74" offset="0.476"/>
   <stop stop-color="#06e775" offset="0.801"/>
   <stop stop-color="#00f076" offset="1"/>
  </linearGradient>
 </defs>
 <g>
  <title>Layer 1</title>
  <g stroke-width="0" id="SVGRepo_bgCarrier"/>
  <g stroke-linejoin="round" stroke-linecap="round" id="SVGRepo_tracerCarrier"/>
  <g stroke="null" id="SVGRepo_iconCarrier">
   <path stroke="null" id="svg_1" d="m96.17905,24.84959l-92.41876,0c-2.07018,0 -3.69675,-1.36673 -3.69675,-3.1062l0,-18.63719c0,-1.73947 1.62657,-3.1062 3.69675,-3.1062l92.41876,0c2.07018,0 3.69675,1.36673 3.69675,3.1062l0,18.63719c0,1.73947 -1.62657,3.1062 -3.69675,3.1062z"/>
   <path stroke="null" id="svg_2" fill="#a6a6a6" d="m96.17905,0.49699c1.70051,0 3.10527,1.18036 3.10527,2.60921l0,18.63719c0,1.42885 -1.40477,2.60921 -3.10527,2.60921l-92.41876,0c-1.70051,0 -3.10527,-1.18036 -3.10527,-2.60921l0,-18.63719c0,-1.42885 1.40477,-2.60921 3.10527,-2.60921l92.41876,0m0,-0.49699l-92.41876,0c-2.07018,0 -3.69675,1.42885 -3.69675,3.1062l0,18.63719c0,1.73947 1.62657,3.1062 3.69675,3.1062l92.41876,0c2.07018,0 3.69675,-1.36673 3.69675,-3.1062l0,-18.63719c0,-1.67735 -1.62657,-3.1062 -3.69675,-3.1062z" class="st0"/>
   <path stroke="#ffffff" id="svg_3" fill="#fff" stroke-miterlimit="10" stroke-width="0.2" d="m35.10873,6.33664c0,0.49699 -0.14787,0.93186 -0.51755,1.24248c-0.44361,0.37274 -0.96116,0.55912 -1.62657,0.55912c-0.66542,0 -1.18296,-0.18637 -1.62657,-0.55912c-0.44361,-0.37274 -0.66542,-0.80761 -0.66542,-1.36673c0,-0.55912 0.22181,-0.99398 0.66542,-1.36673c0.44361,-0.37274 0.96116,-0.55912 1.62657,-0.55912c0.29574,0 0.59148,0.06212 0.88722,0.18637c0.29574,0.12425 0.51755,0.2485 0.66542,0.43487l-0.36968,0.31062c-0.29574,-0.31062 -0.66542,-0.43487 -1.18296,-0.43487c-0.44361,0 -0.88722,0.12425 -1.18296,0.43487c-0.36968,0.2485 -0.51755,0.62124 -0.51755,1.05611s0.14787,0.80761 0.51755,1.05611c0.36968,0.2485 0.73935,0.43487 1.18296,0.43487c0.51755,0 0.88722,-0.12425 1.2569,-0.43487c0.22181,-0.18637 0.36968,-0.43487 0.36968,-0.74549l-1.62657,0l0,-0.49699l2.14412,0l0,0.2485zm3.40101,-1.5531l-1.99625,0l0,1.18036l1.84838,0l0,0.43487l-1.84838,0l0,1.18036l1.99625,0l0,0.49699l-2.58773,0l0,-3.72744l2.58773,0l0,0.43487zm2.43986,3.29257l-0.59148,0l0,-3.29257l-1.2569,0l0,-0.43487l3.10527,0l0,0.43487l-1.2569,0l0,3.29257zm3.40101,0l0,-3.72744l0.59148,0l0,3.72744l-0.59148,0zm3.10527,0l-0.59148,0l0,-3.29257l-1.2569,0l0,-0.43487l3.03134,0l0,0.43487l-1.2569,0l0,3.29257l0.07394,0zm7.02383,-0.49699c-0.44361,0.37274 -0.96116,0.55912 -1.62657,0.55912c-0.66542,0 -1.18296,-0.18637 -1.62657,-0.55912c-0.44361,-0.37274 -0.66542,-0.80761 -0.66542,-1.36673s0.22181,-0.99398 0.66542,-1.36673c0.44361,-0.37274 0.96116,-0.55912 1.62657,-0.55912c0.66542,0 1.18296,0.18637 1.62657,0.55912c0.44361,0.37274 0.66542,0.80761 0.66542,1.36673c0,0.55912 -0.22181,0.99398 -0.66542,1.36673zm-2.80953,-0.31062c0.29574,0.2485 0.73935,0.43487 1.18296,0.43487c0.44361,0 0.88722,-0.12425 1.18296,-0.43487c0.29574,-0.2485 0.51755,-0.62124 0.51755,-1.05611s-0.14787,-0.80761 -0.51755,-1.05611c-0.29574,-0.2485 -0.73935,-0.43487 -1.18296,-0.43487c-0.44361,0 -0.88722,0.12425 -1.18296,0.43487c-0.29574,0.2485 -0.51755,0.62124 -0.51755,1.05611s0.14787,0.80761 0.51755,1.05611zm4.28823,0.80761l0,-3.72744l0.66542,0l2.14412,2.91983l0,-2.91983l0.59148,0l0,3.72744l-0.59148,0l-2.29199,-3.04407l0,3.04407l-0.51755,0z" class="st1"/>
   <path stroke="null" id="svg_4" fill="#fff" d="m50.41328,13.54302c-1.77444,0 -3.17921,1.11823 -3.17921,2.67133c0,1.49098 1.40477,2.67133 3.17921,2.67133s3.17921,-1.11823 3.17921,-2.67133c0,-1.61522 -1.40477,-2.67133 -3.17921,-2.67133zm0,4.22443c-0.96116,0 -1.77444,-0.68336 -1.77444,-1.61522s0.81329,-1.61522 1.77444,-1.61522c0.96116,0 1.77444,0.62124 1.77444,1.61522c0,0.93186 -0.81329,1.61522 -1.77444,1.61522zm-6.87596,-4.22443c-1.77444,0 -3.17921,1.11823 -3.17921,2.67133c0,1.49098 1.40477,2.67133 3.17921,2.67133s3.17921,-1.11823 3.17921,-2.67133c0,-1.61522 -1.40477,-2.67133 -3.17921,-2.67133zm0,4.22443c-0.96116,0 -1.77444,-0.68336 -1.77444,-1.61522s0.81329,-1.61522 1.77444,-1.61522c0.96116,0 1.77444,0.62124 1.77444,1.61522c0,0.93186 -0.81329,1.61522 -1.77444,1.61522zm-8.20679,-3.41682l0,1.11823l3.17921,0c-0.07394,0.62124 -0.36968,1.11823 -0.73935,1.42885c-0.44361,0.37274 -1.18296,0.80761 -2.43986,0.80761c-1.99625,0 -3.47495,-1.3046 -3.47495,-2.98195s1.55264,-2.98195 3.47495,-2.98195c1.03509,0 1.84838,0.37274 2.43986,0.80761l0.96116,-0.80761c-0.81329,-0.62124 -1.84838,-1.11823 -3.32708,-1.11823c-2.66166,0 -4.95365,1.86372 -4.95365,4.10018c0,2.23646 2.29199,4.10018 4.95365,4.10018c1.4787,0 2.51379,-0.37274 3.40101,-1.18036c0.88722,-0.74549 1.18296,-1.8016 1.18296,-2.60921c0,-0.2485 0,-0.49699 -0.07394,-0.68336l-4.58397,0zm33.56649,0.86974c-0.29574,-0.62124 -1.03509,-1.67735 -2.66166,-1.67735s-2.9574,1.05611 -2.9574,2.67133c0,1.49098 1.33083,2.67133 3.10527,2.67133c1.40477,0 2.29199,-0.74549 2.58773,-1.18036l-1.03509,-0.62124c-0.36968,0.43487 -0.81329,0.74549 -1.55264,0.74549s-1.18296,-0.2485 -1.55264,-0.80761l4.2143,-1.49098l-0.14787,-0.31062zm-4.28823,0.86974c0,-0.99398 0.96116,-1.5531 1.62657,-1.5531c0.51755,0 1.03509,0.2485 1.18296,0.55912l-2.80953,0.99398zm-3.47495,2.54708l1.40477,0l0,-7.7655l-1.40477,0l0,7.7655zm-2.21805,-4.53505c-0.36968,-0.31062 -0.96116,-0.62124 -1.70051,-0.62124c-1.55264,0 -3.03134,1.18036 -3.03134,2.67133s1.40477,2.60921 3.03134,2.60921c0.73935,0 1.33083,-0.31062 1.62657,-0.62124l0.07394,0l0,0.37274c0,0.99398 -0.66542,1.5531 -1.70051,1.5531c-0.81329,0 -1.40477,-0.49699 -1.55264,-0.93186l-1.18296,0.43487c0.36968,0.68336 1.2569,1.5531 2.80953,1.5531c1.62657,0 2.9574,-0.80761 2.9574,-2.73345l0,-4.72142l-1.33083,0l0,0.43487zm-1.62657,3.66531c-0.96116,0 -1.77444,-0.68336 -1.77444,-1.61522s0.81329,-1.61522 1.77444,-1.61522c0.96116,0 1.70051,0.68336 1.70051,1.61522s-0.73935,1.61522 -1.70051,1.61522zm18.04014,-6.89576l-3.32708,0l0,7.7655l1.40477,0l0,-2.91983l1.92231,0c1.55264,0 3.03134,-0.93186 3.03134,-2.42283s-1.4787,-2.42283 -3.03134,-2.42283zm0.07394,3.72744l-1.99625,0l0,-2.67133l1.99625,0c1.03509,0 1.62657,0.74549 1.62657,1.3046c-0.07394,0.68336 -0.66542,1.36673 -1.62657,1.36673zm8.50253,-1.11823c-1.03509,0 -2.07018,0.37274 -2.43986,1.18036l1.2569,0.43487c0.29574,-0.43487 0.73935,-0.55912 1.2569,-0.55912c0.73935,0 1.40477,0.37274 1.4787,0.99398l0,0.06212c-0.22181,-0.12425 -0.81329,-0.31062 -1.40477,-0.31062c-1.33083,0 -2.66166,0.62124 -2.66166,1.73947c0,1.05611 1.10903,1.73947 2.29199,1.73947c0.96116,0 1.40477,-0.37274 1.77444,-0.74549l0.07394,0l0,0.62124l1.33083,0l0,-2.98195c-0.14787,-1.36673 -1.40477,-2.17434 -2.9574,-2.17434zm-0.14787,4.28655c-0.44361,0 -1.10903,-0.18637 -1.10903,-0.68336c0,-0.62124 0.81329,-0.80761 1.4787,-0.80761c0.59148,0 0.88722,0.12425 1.2569,0.2485c-0.14787,0.74549 -0.88722,1.24248 -1.62657,1.24248zm7.76318,-4.10018l-1.55264,3.35469l-0.07394,0l-1.62657,-3.35469l-1.4787,0l2.43986,4.72142l-1.40477,2.60921l1.40477,0l3.77069,-7.33063l-1.4787,0zm-12.42108,4.96992l1.40477,0l0,-7.7655l-1.40477,0l0,7.7655z" class="st2"/>
   <g stroke="null" id="svg_5">
    <path stroke="null" id="svg_6" fill="url(#SVGID_1_)" d="m7.75278,4.6593c-0.22181,0.18637 -0.29574,0.49699 -0.29574,0.86974l0,13.7294c0,0.37274 0.14787,0.68336 0.36968,0.86974l0.07394,0.06212l9.16794,-7.70337l0,-0.12425l-9.31581,-7.70337z" class="st3"/>
    <path stroke="null" id="svg_7" fill="url(#SVGID_2_)" d="m20.02599,15.09612l-3.03134,-2.54708l0,-0.18637l3.03134,-2.54708l0.07394,0.06212l3.62282,1.73947c1.03509,0.49699 1.03509,1.3046 0,1.8016l-3.69675,1.67735z" class="st4"/>
    <path stroke="null" id="svg_8" fill="url(#SVGID_3_)" d="m20.09993,15.034l-3.10527,-2.60921l-9.24188,7.7655c0.36968,0.31062 0.88722,0.31062 1.55264,0.06212l10.79451,-5.21841" class="st5"/>
    <path stroke="null" id="svg_9" fill="url(#SVGID_4_)" d="m20.09993,9.81559l-10.79451,-5.15629c-0.66542,-0.31062 -1.18296,-0.2485 -1.55264,0.06212l9.24188,7.70337l3.10527,-2.60921z" class="st6"/>
    <path stroke="null" id="svg_10" enable-background="new" opacity="0.2" d="m20.02599,14.97188l-10.72058,5.09417c-0.59148,0.31062 -1.10903,0.2485 -1.4787,0l-0.07394,0.06212l0.07394,0.06212c0.36968,0.2485 0.88722,0.31062 1.4787,0l10.72058,-5.21841z" class="st7"/>
    <path stroke="null" id="svg_11" enable-background="new" opacity="0.12" d="m7.75278,20.06604c-0.22181,-0.18637 -0.29574,-0.49699 -0.29574,-0.86974l0,0.06212c0,0.37274 0.14787,0.68336 0.36968,0.86974l0,-0.06212l-0.07394,0zm15.96996,-6.83364l-3.69675,1.73947l0.07394,0.06212l3.62282,-1.73947c0.51755,-0.2485 0.73935,-0.55912 0.73935,-0.86974c0,0.31062 -0.29574,0.55912 -0.73935,0.80761z" class="st8"/>
    <path stroke="null" id="svg_12" fill="#fff" enable-background="new" opacity="0.25" d="m9.30542,4.72142l14.41733,6.89576c0.44361,0.2485 0.73935,0.49699 0.73935,0.80761c0,-0.31062 -0.22181,-0.62124 -0.73935,-0.86974l-14.41733,-6.89576c-1.03509,-0.49699 -1.84838,-0.12425 -1.84838,0.86974l0,0.06212c0,-0.93186 0.81329,-1.36673 1.84838,-0.86974z" class="st9"/>
   </g>
  </g>
 </g>
</svg>