<svg width="100" height="25" xmlns="http://www.w3.org/2000/svg" xmlns:xlink="http://www.w3.org/1999/xlink" xml:space="preserve" enable-background="new 0 0 864 312" version="1.1">
 <g>
  <title>Layer 1</title>
  <g stroke="null" id="Layer_2">
   <rect stroke="null" id="svg_1" height="24.6637" width="99.34181" y="0.18448" x="0.26584"/>
   <path stroke="null" id="svg_2" d="m0.52011,0.36093l98.82169,0l0,24.30277l-98.82169,0l0,-24.30277zm-0.52011,24.6637l99.86192,0l0,-25.02463l-99.86192,0l0,25.02463z" fill="#D2D2D2"/>
   <g stroke="null" id="svg_3">
    <defs stroke="null" transform="translate(8.89764 3.46457) translate(10.2463 -20.9852) translate(-2 -4) translate(-2 -4) scale(0.419099 0.878049) translate(2 4) translate(0 0) scale(0.0462963 0.0641026) translate(0 0) translate(0 0) scale(2.49261 1.25123) translate(0 0) translate(0 0) scale(1 1) translate(0 0) translate(0 0) scale(1.00158 1) translate(0 0)">
     <rect stroke="null" height="312" width="864" y="0" id="SVGID_1_"/>
    </defs>
    <clipPath stroke="null" transform="translate(8.89764 3.46457) translate(10.2463 -20.9852) translate(-2 -4) translate(-2 -4) scale(0.419099 0.878049) translate(2 4) translate(0 0) scale(0.0462963 0.0641026) translate(0 0) translate(0 0) scale(2.49261 1.25123) translate(0 0) translate(0 0) scale(1 1) translate(0 0) translate(0 0) scale(1.00158 1) translate(0 0)" id="SVGID_2_">
     <use stroke="null" id="svg_4" overflow="visible" xlink:href="#SVGID_1_"/>
    </clipPath>
   </g>
  </g>
  <g stroke="null" id="Layer_1">
   <rect stroke="null" id="svg_5" height="8.37749" width="9.4481" fill="#F25022" y="3.67814" x="9.41176"/>
   <rect stroke="null" id="svg_6" height="8.37749" width="9.4481" fill="#7FBA00" y="3.67814" x="19.84074"/>
   <rect stroke="null" id="svg_7" height="8.37749" width="9.4481" fill="#00A4EF" y="12.91538" x="9.41176"/>
   <rect stroke="null" id="svg_8" height="8.37749" width="9.4481" fill="#FFB900" y="12.91538" x="19.84074"/>
   <path stroke="null" id="svg_9" d="m47.49728,13.11532c0,-0.24993 0.10147,-0.44987 0.30441,-0.61981c0.20294,-0.16995 0.43971,-0.24993 0.72157,-0.24993c0.29314,0 0.54118,0.08997 0.73285,0.25992c0.19167,0.16995 0.29314,0.37989 0.29314,0.60982c0,0.23993 -0.10147,0.44987 -0.30441,0.60982c-0.20294,0.16995 -0.43971,0.24993 -0.73285,0.24993c-0.29314,0 -0.52991,-0.07998 -0.73285,-0.24993c-0.18039,-0.16995 -0.28186,-0.36989 -0.28186,-0.60982m1.86031,8.17755l-1.67991,0l0,-6.3481l1.67991,0l0,6.3481z" fill="#FFFFFF"/>
   <path stroke="null" id="svg_10" d="m54.47624,20.2032c0.24804,0 0.52991,-0.04999 0.83432,-0.14996c0.30441,-0.09997 0.575,-0.23993 0.83432,-0.40988l0,1.38958c-0.27059,0.13996 -0.575,0.23993 -0.91324,0.30991c-0.33824,0.06998 -0.72157,0.10997 -1.12746,0.10997c-1.04854,0 -1.9054,-0.29991 -2.5706,-0.88973c-0.6652,-0.58982 -0.99216,-1.3496 -0.99216,-2.25932c0,-1.01969 0.33824,-1.85944 1.01471,-2.51925c0.67647,-0.6598 1.62354,-0.9897 2.86374,-0.9897c0.31569,0 0.63138,0.03999 0.95834,0.10997c0.32696,0.06998 0.575,0.15995 0.76667,0.24993l0,1.42957c-0.25932,-0.16995 -0.52991,-0.29991 -0.80049,-0.38988c-0.27059,-0.08997 -0.55245,-0.13996 -0.83432,-0.13996c-0.6652,0 -1.19511,0.18994 -1.61226,0.56983c-0.40588,0.37989 -0.60883,0.89973 -0.60883,1.54954c0,0.63981 0.19167,1.13966 0.58628,1.49955c0.39461,0.35989 0.92452,0.52984 1.60099,0.52984" fill="#FFFFFF"/>
   <path stroke="null" id="svg_11" d="m60.93657,14.8448c0.13529,0 0.25932,0.01 0.36079,0.01999c0.10147,0.01999 0.20294,0.03999 0.27059,0.05998l0,1.50955c-0.0902,-0.05998 -0.21422,-0.10997 -0.38334,-0.15995c-0.16912,-0.04999 -0.37206,-0.07998 -0.6201,-0.07998c-0.41716,0 -0.76667,0.14996 -1.04854,0.45986c-0.28186,0.30991 -0.42843,0.77977 -0.42843,1.42957l0,3.20904l-1.67991,0l0,-6.3481l1.67991,0l0,0.9997l0.02255,0c0.15784,-0.3499 0.38334,-0.61981 0.69902,-0.80976c0.31569,-0.18994 0.68775,-0.28991 1.12746,-0.28991" fill="#FFFFFF"/>
   <path stroke="null" id="svg_12" d="m61.65815,18.21379c0,-1.04969 0.33824,-1.87944 1.00344,-2.49925c0.6652,-0.60982 1.60099,-0.91972 2.78482,-0.91972c1.11618,0 1.9956,0.29991 2.62698,0.88973c0.63138,0.58982 0.94706,1.38958 0.94706,2.38929c0,1.02969 -0.33824,1.84945 -1.00344,2.45926c-0.6652,0.60982 -1.57844,0.90973 -2.72845,0.90973c-1.10491,0 -1.9956,-0.28991 -2.63825,-0.86974c-0.6652,-0.56983 -0.99216,-1.35959 -0.99216,-2.35929m1.75883,-0.04999c0,0.6598 0.16912,1.16965 0.50736,1.51955c0.33824,0.3499 0.82304,0.51984 1.45442,0.51984c0.60883,0 1.08236,-0.16995 1.39805,-0.51984s0.48481,-0.86974 0.48481,-1.55953c0,-0.6798 -0.16912,-1.19964 -0.49608,-1.54954c-0.32696,-0.3499 -0.80049,-0.51984 -1.39805,-0.51984c-0.6201,0 -1.09363,0.17995 -1.44315,0.54984c-0.33824,0.36989 -0.50736,0.87974 -0.50736,1.55953" fill="#FFFFFF"/>
   <path stroke="null" id="svg_13" d="m71.5234,16.61427c0,0.20994 0.07892,0.37989 0.22549,0.49985c0.15784,0.11996 0.49608,0.26992 1.01471,0.45986c0.67647,0.23993 1.15001,0.50985 1.4206,0.80976c0.27059,0.29991 0.40588,0.6598 0.40588,1.07968c0,0.59982 -0.25932,1.07968 -0.77795,1.43957c-0.51863,0.35989 -1.21765,0.53984 -2.09707,0.53984c-0.29314,0 -0.6201,-0.02999 -0.98089,-0.09997c-0.36079,-0.05998 -0.6652,-0.14996 -0.91324,-0.23993l0,-1.46956c0.30441,0.18994 0.63138,0.3399 0.99216,0.44987c0.34951,0.10997 0.67647,0.16995 0.95834,0.16995c0.38334,0 0.6652,-0.04999 0.84559,-0.13996c0.18039,-0.08997 0.27059,-0.24993 0.27059,-0.47986c0,-0.20994 -0.0902,-0.37989 -0.28186,-0.51984c-0.19167,-0.13996 -0.54118,-0.30991 -1.07108,-0.48985c-0.6201,-0.22993 -1.05981,-0.48985 -1.31913,-0.77977c-0.25932,-0.28991 -0.39461,-0.6598 -0.39461,-1.09967c0,-0.56983 0.25932,-1.03969 0.76667,-1.40958c0.50736,-0.36989 1.17256,-0.54984 1.9956,-0.54984c0.24804,0 0.52991,0.01999 0.84559,0.06998c0.31569,0.04999 0.575,0.10997 0.77795,0.18994l0,1.41958c-0.22549,-0.12996 -0.48481,-0.23993 -0.77795,-0.3399c-0.29314,-0.08997 -0.59755,-0.13996 -0.87942,-0.13996c-0.31569,0 -0.575,0.05998 -0.74412,0.16995c-0.19167,0.10997 -0.28186,0.26992 -0.28186,0.45986" fill="#FFFFFF"/>
   <path stroke="null" id="svg_14" d="m75.33421,18.21379c0,-1.04969 0.33824,-1.87944 1.00344,-2.49925c0.6652,-0.60982 1.60099,-0.91972 2.78482,-0.91972c1.11618,0 1.9956,0.29991 2.62698,0.88973c0.63138,0.58982 0.94706,1.38958 0.94706,2.38929c0,1.02969 -0.33824,1.84945 -1.00344,2.45926c-0.6652,0.60982 -1.57844,0.90973 -2.72845,0.90973c-1.10491,0 -1.9956,-0.28991 -2.63825,-0.86974c-0.6652,-0.56983 -0.99216,-1.35959 -0.99216,-2.35929m1.74756,-0.04999c0,0.6598 0.16912,1.16965 0.50736,1.51955c0.33824,0.3499 0.82304,0.51984 1.45442,0.51984c0.60883,0 1.08236,-0.16995 1.39805,-0.51984s0.48481,-0.86974 0.48481,-1.55953c0,-0.6798 -0.16912,-1.19964 -0.49608,-1.54954s-0.80049,-0.51984 -1.39805,-0.51984c-0.6201,0 -1.09363,0.17995 -1.44315,0.54984c-0.33824,0.36989 -0.50736,0.87974 -0.50736,1.55953" fill="#FFFFFF"/>
   <path stroke="null" id="svg_15" d="m88.25487,16.1744l0,3.25902c0,0.6798 0.18039,1.17965 0.52991,1.51955c0.34951,0.3399 0.89069,0.49985 1.60099,0.49985c0.23677,0 0.48481,-0.01999 0.73285,-0.06998c0.24804,-0.04999 0.42843,-0.08997 0.52991,-0.14996l0,-1.23963c-0.10147,0.05998 -0.22549,0.10997 -0.36079,0.14996c-0.13529,0.03999 -0.25932,0.05998 -0.34951,0.05998c-0.33824,0 -0.59755,-0.07998 -0.7554,-0.23993c-0.15784,-0.15995 -0.23677,-0.43987 -0.23677,-0.82975l0,-2.96911l1.71374,0l0,-1.21964l-1.70246,0l0,-1.87944l-1.69119,0.45986l0,1.42957l-2.51423,0l0,-0.76977c0,-0.37989 0.0902,-0.6698 0.28186,-0.86974c0.19167,-0.19994 0.46226,-0.28991 0.81177,-0.28991c0.18039,0 0.33824,0.01999 0.48481,0.05998c0.13529,0.03999 0.23677,0.07998 0.29314,0.10997l0,-1.28961c-0.12402,-0.03999 -0.25932,-0.05998 -0.41716,-0.07998c-0.15784,-0.01999 -0.33824,-0.02999 -0.54118,-0.02999c-0.76667,0 -1.39805,0.20994 -1.88285,0.63981c-0.48481,0.42987 -0.73285,0.96971 -0.73285,1.63951l0,0.87974l-1.19511,0l0,1.21964l1.19511,0l0,5.12847l1.70246,0l0,-5.12847l2.50296,0z" fill="#FFFFFF"/>
   <polygon stroke="null" id="svg_16" points="46.05413313931024,12.43552655831914 46.05413313931024,21.292875671515418 44.31783683329479,21.292875671515418 44.31783683329479,14.354951102824344 44.29530247661944,14.354951102824344 41.19479172022977,21.292875671515418 40.04478812091213,21.292875671515418 36.86533988483836,14.354951102824344 36.84280552816301,14.354951102824344 36.84280552816301,21.292875671515418 35.241818186572004,21.292875671515418 35.241818186572004,12.43552655831914 37.722218882116636,12.43552655831914 40.59723183519429,19.00355772296203 40.6423242772463,19.00355772296203 43.675192415774404,12.43552655831914 " fill="#FFFFFF"/>
   <path stroke="null" id="svg_17" d="m39.79674,8.60667c-0.59755,0.29991 -1.27403,0.44987 -2.02942,0.44987c-0.575,0 -1.08236,-0.10997 -1.53334,-0.3399c-0.43971,-0.21993 -0.78922,-0.53984 -1.02599,-0.94972c-0.23677,-0.40988 -0.36079,-0.86974 -0.36079,-1.37959c0,-0.53984 0.13529,-1.02969 0.39461,-1.44957s0.63138,-0.75977 1.11618,-0.9997c0.48481,-0.23993 1.02599,-0.35989 1.63481,-0.35989c0.30441,0 0.60883,0.02999 0.91324,0.07998c0.30441,0.04999 0.55245,0.11996 0.74412,0.19994l0,0.79976c-0.45098,-0.26992 -1.02599,-0.39988 -1.72501,-0.39988c-0.41716,0 -0.78922,0.08997 -1.12746,0.26992c-0.33824,0.17995 -0.59755,0.42987 -0.77795,0.73978c-0.18039,0.3199 -0.27059,0.6798 -0.27059,1.07968c0,0.62981 0.19167,1.12966 0.56373,1.49955c0.37206,0.36989 0.89069,0.54984 1.54462,0.54984c0.41716,0 0.78922,-0.06998 1.10491,-0.21993l0,-1.36959l-1.27403,0l0,-0.6598l2.10835,0l0,2.45926z" fill="#FFFFFF"/>
   <path stroke="null" id="svg_18" d="m44.65608,7.27707l-2.95394,0c0.01127,0.37989 0.14657,0.6698 0.37206,0.87974c0.23677,0.19994 0.54118,0.30991 0.92452,0.30991c0.50736,0 0.94706,-0.12996 1.3304,-0.38988l0,0.63981c-0.16912,0.09997 -0.38334,0.18994 -0.64265,0.24993c-0.25932,0.05998 -0.52991,0.08997 -0.80049,0.08997c-0.64265,0 -1.15001,-0.16995 -1.49952,-0.50985c-0.34951,-0.3399 -0.52991,-0.81975 -0.52991,-1.43957c0,-0.37989 0.0902,-0.72978 0.25932,-1.02969c0.16912,-0.30991 0.41716,-0.54984 0.72157,-0.71978c0.30441,-0.16995 0.65393,-0.25992 1.02599,-0.25992c0.55245,0 0.99216,0.15995 1.30785,0.47986c0.31569,0.3199 0.47353,0.75977 0.47353,1.3296l0,0.36989l0.01127,0zm-0.82304,-0.56983c0,-0.3299 -0.0902,-0.57983 -0.25932,-0.74978c-0.16912,-0.16995 -0.40588,-0.25992 -0.72157,-0.25992c-0.28186,0 -0.52991,0.08997 -0.74412,0.26992s-0.33824,0.42987 -0.40588,0.73978l2.13089,0z" fill="#FFFFFF"/>
   <path stroke="null" id="svg_19" d="m47.85806,8.92657c-0.07892,0.03999 -0.18039,0.06998 -0.32696,0.08997c-0.13529,0.01999 -0.25932,0.02999 -0.37206,0.02999c-0.78922,0 -1.18383,-0.38988 -1.18383,-1.15965l0,-2.09937l-0.72157,0l0,-0.59982l0.72157,0l0,-0.89973l0.82304,-0.22993l0,1.11966l1.04854,0l0,0.59982l-1.04854,0l0,1.97941c0,0.24993 0.0451,0.42987 0.13529,0.52984c0.0902,0.09997 0.24804,0.14996 0.48481,0.14996c0.15784,0 0.30441,-0.03999 0.42843,-0.11996l0,0.60982l0.01127,0z" fill="#FFFFFF"/>
   <path stroke="null" id="svg_20" d="m51.93946,3.84809c0,0.11996 -0.0451,0.21993 -0.14657,0.30991c-0.10147,0.08997 -0.22549,0.12996 -0.37206,0.12996c-0.14657,0 -0.27059,-0.03999 -0.37206,-0.12996c-0.10147,-0.07998 -0.14657,-0.18994 -0.14657,-0.3199c0,-0.12996 0.05637,-0.23993 0.15784,-0.3199c0.10147,-0.07998 0.22549,-0.12996 0.36079,-0.12996c0.13529,0 0.25932,0.03999 0.36079,0.12996c0.11275,0.09997 0.15784,0.19994 0.15784,0.3299m-0.11275,5.11847l-0.82304,0l0,-3.77887l0.82304,0l0,3.77887z" fill="#FFFFFF"/>
   <path stroke="null" id="svg_21" d="m55.40076,8.92657c-0.07892,0.03999 -0.18039,0.06998 -0.32696,0.08997c-0.13529,0.01999 -0.25932,0.02999 -0.37206,0.02999c-0.78922,0 -1.18383,-0.38988 -1.18383,-1.15965l0,-2.09937l-0.72157,0l0,-0.59982l0.72157,0l0,-0.89973l0.82304,-0.22993l0,1.11966l1.04854,0l0,0.59982l-1.04854,0l0,1.97941c0,0.24993 0.0451,0.42987 0.13529,0.52984c0.0902,0.09997 0.24804,0.14996 0.48481,0.14996c0.15784,0 0.30441,-0.03999 0.42843,-0.11996l0,0.60982l0.01127,0z" fill="#FFFFFF"/>
   <path stroke="null" id="svg_22" d="m60.79,3.98805c-0.13529,-0.05998 -0.28186,-0.09997 -0.45098,-0.09997c-0.46226,0 -0.68775,0.24993 -0.68775,0.74978l0,0.53984l0.96961,0l0,0.59982l-0.96961,0l0,3.17905l-0.82304,0l0,-3.16905l-0.72157,0l0,-0.59982l0.72157,0l0,-0.57983c0,-0.39988 0.12402,-0.71978 0.38334,-0.95971c0.25932,-0.23993 0.60883,-0.35989 1.05981,-0.35989c0.22549,0 0.39461,0.01999 0.52991,0.06998l0,0.62981l-0.01127,0z" fill="#FFFFFF"/>
   <path stroke="null" id="svg_23" d="m63.82286,5.91747c-0.0451,-0.02999 -0.13529,-0.05998 -0.24804,-0.08997c-0.11275,-0.01999 -0.21422,-0.03999 -0.29314,-0.03999c-0.29314,0 -0.52991,0.11996 -0.7103,0.3499c-0.18039,0.22993 -0.27059,0.52984 -0.27059,0.89973l0,1.92942l-0.82304,0l0,-3.77887l0.82304,0l0,0.75977l0.02255,0c0.0902,-0.25992 0.23677,-0.45986 0.42843,-0.60982c0.19167,-0.14996 0.41716,-0.21993 0.6652,-0.21993c0.16912,0 0.30441,0.01999 0.39461,0.04999l0,0.74978l0.01127,0z" fill="#FFFFFF"/>
   <path stroke="null" id="svg_24" d="m68.52436,7.05713c0,0.60982 -0.20294,1.09967 -0.59755,1.45956c-0.39461,0.35989 -0.92452,0.53984 -1.57844,0.53984c-0.64265,0 -1.16128,-0.17995 -1.54462,-0.52984c-0.38334,-0.3499 -0.575,-0.81975 -0.575,-1.40958c0,-0.62981 0.20294,-1.11966 0.59755,-1.47956c0.39461,-0.35989 0.93579,-0.53984 1.62354,-0.53984c0.64265,0 1.15001,0.16995 1.51079,0.51984c0.38334,0.3499 0.56373,0.82975 0.56373,1.43957m-0.84559,0.01999c0,-0.44987 -0.11275,-0.78976 -0.32696,-1.01969c-0.22549,-0.22993 -0.52991,-0.3499 -0.93579,-0.3499c-0.40588,0 -0.73285,0.11996 -0.96961,0.36989c-0.23677,0.23993 -0.34951,0.58982 -0.34951,1.02969c0,0.42987 0.11275,0.75977 0.34951,0.9997c0.23677,0.23993 0.55245,0.35989 0.96961,0.35989c0.41716,0 0.73285,-0.11996 0.94706,-0.3499c0.20294,-0.24993 0.31569,-0.58982 0.31569,-1.03969" fill="#FFFFFF"/>
   <path stroke="null" id="svg_25" d="m75.88666,8.96656l-0.82304,0l0,-2.14936c0,-0.38988 -0.06765,-0.6698 -0.20294,-0.84975c-0.13529,-0.17995 -0.37206,-0.25992 -0.69902,-0.25992c-0.27059,0 -0.50736,0.10997 -0.68775,0.3299c-0.19167,0.21993 -0.28186,0.48985 -0.28186,0.78976l0,2.13936l-0.82304,0l0,-2.21934c0,-0.68979 -0.30441,-1.03969 -0.90197,-1.03969c-0.28186,0 -0.51863,0.10997 -0.69902,0.3199s-0.27059,0.47986 -0.27059,0.80976l0,2.13936l-0.82304,0l0,-3.78887l0.82304,0l0,0.58982l0.01127,0c0.30441,-0.45986 0.7554,-0.6798 1.3304,-0.6798c0.27059,0 0.51863,0.06998 0.74412,0.19994c0.21422,0.12996 0.37206,0.3199 0.47353,0.55983c0.16912,-0.25992 0.36079,-0.44987 0.59755,-0.57983c0.23677,-0.11996 0.50736,-0.18994 0.82304,-0.18994c0.93579,0 1.39805,0.50985 1.39805,1.53954l0,2.3393l0.01127,0z" fill="#FFFFFF"/>
  </g>
 </g>
</svg>